<svg width="475" height="753" viewBox="0 0 475 753" fill="none" xmlns="http://www.w3.org/2000/svg">
<path fill="#789" fill-rule="evenodd" clip-rule="evenodd" d="M250.258 3.81989C243.565 3.02847 228.882 2.65794 224.969 3.4081C160.537 15.7671 154.849 17.5121 135.874 30.7411C119.664 42.0441 97.0397 61.1571 98.3367 62.4541C98.5647 62.6821 100.997 61.4871 103.742 59.7981C111.283 55.1571 126.485 48.2951 135.556 45.4371C148.24 41.4401 168.538 37.7321 186.095 36.2051C197.63 35.2011 196.39 37.1881 184.657 38.5091C179.054 39.1391 170.453 40.8231 165.544 42.2501C157.118 44.7001 136.583 52.7051 137.189 53.3031C137.343 53.4551 139.494 53.1881 141.969 52.7101C157.561 49.6971 175.297 53.5481 190.605 63.2701C203.364 71.3741 220.107 91.3601 231.472 112.051C235.673 119.7 235.703 121.972 231.52 115.65C225.636 106.759 206.826 88.7531 203.422 88.7531C202.668 88.7531 201.721 91.3571 201.028 95.3381C199.639 103.314 195.479 114.054 190.398 122.782C186.726 129.092 178.277 138.041 156.863 158.308C145.671 168.9 138.811 178.218 131.503 192.753C127.03 201.65 120.969 216.444 120.969 218.466C120.969 218.792 123.468 215.325 126.523 210.761C137.254 194.729 148.385 182.576 161.469 172.608C167.235 168.215 175.812 163.263 176.487 163.938C176.665 164.116 172.102 168.085 166.346 172.757C147.996 187.654 131.536 207.726 121.818 227.053C119.632 231.402 117.984 235.076 118.156 235.218C118.328 235.36 122.969 234.399 128.469 233.082C134.235 231.702 143.338 230.436 149.969 230.093C161.261 229.508 161.803 229.582 179.934 234.154C203.43 240.08 218.155 241.638 234.865 239.967C246.382 238.816 261.218 235.227 267.156 232.156C268.805 231.303 270.383 230.833 270.661 231.112C271.517 231.967 261.971 236.308 251.963 239.615C237.867 244.272 229.706 245.718 217.469 245.725C206.6 245.732 202.991 245.152 174.469 238.817C160.672 235.753 150.733 235.246 142.491 237.187C135.563 238.818 126.969 243.004 126.969 244.747C126.969 245.897 166.915 259.04 180.369 262.316C199.676 267.018 217.777 266.605 235.445 261.059C239.858 259.673 251.31 255.216 260.893 251.154C270.476 247.091 278.488 243.939 278.698 244.149C280.158 245.609 247.229 262.778 235.11 266.874C223.711 270.727 219.36 273.684 218.027 278.482C217.451 280.556 216.978 283.013 216.975 283.942C216.97 285.201 215.76 285.79 212.219 286.256C209.606 286.6 206.231 287.113 204.719 287.397C201.361 288.026 201.339 287.694 204.395 282.431C207.484 277.109 208.732 270.931 206.828 270.382C206.081 270.167 199.619 269.244 192.469 268.331C176.123 266.245 158.715 262.699 142.925 258.24C136.178 256.335 127.883 254.492 124.49 254.145C115.893 253.264 105.146 255.299 97.0807 259.333C89.5717 263.09 79.7987 272.153 76.0347 278.849C73.5117 283.338 73.7437 283.304 80.9917 278.124C83.4797 276.346 89.1047 273.681 93.4917 272.202C100.723 269.764 102.404 269.565 111.469 270.077C121.97 270.67 131.433 272.893 159.208 281.292C183.973 288.78 195.352 294.275 200.217 301.096C202.134 303.784 202.469 305.533 202.469 312.87C202.469 320.783 202.591 321.314 203.958 319.37C204.778 318.206 206.191 314.328 207.1 310.753L208.752 304.253L209.477 309.023C209.882 311.684 209.747 315.585 209.173 317.846C208.253 321.471 208.32 321.818 209.807 321.126C210.721 320.701 213.15 320.33 215.206 320.303L218.942 320.253L218.338 312.253C217.587 302.307 218.963 296.872 223.504 291.845C231.31 283.206 257.69 273.079 280.969 269.786C294.95 267.808 295.969 267.728 295.969 268.614C295.969 269.101 291.934 270.237 287.002 271.139C273.504 273.609 254.396 279.358 245.969 283.486L238.469 287.159L249.969 287.849C263.319 288.65 270.279 290.766 279.651 296.872C285.852 300.912 293.61 308.446 292.604 309.451C292.318 309.737 290.821 309.08 289.277 307.99C284.965 304.949 276.946 301.104 270.114 298.802C263.497 296.573 251.969 294.642 251.969 295.764C251.969 296.137 252.915 297.299 254.071 298.346C257.261 301.233 258.969 305.21 258.969 309.753C258.969 314.958 256.913 318.931 252.464 322.325C247.357 326.22 241.798 326.559 234.436 323.423L228.469 320.882L226.687 323.067C225.707 324.269 224.219 326.518 223.38 328.065C221.671 331.214 218.972 345.251 218.97 351.003C218.968 357.895 216.164 354.495 215.878 347.253C215.763 344.353 215.715 344.387 214.441 348.253C213.716 350.453 213.088 353.464 213.046 354.944C212.94 358.651 211.178 359.407 208.618 356.844C206.74 354.963 206.487 353.66 206.615 346.496C206.751 338.897 206.66 338.496 205.357 340.981C204.585 342.456 203.289 347.133 202.477 351.376C201.512 356.421 200.243 359.897 198.811 361.422C195.654 364.781 194.672 364.288 196.98 360.503C199.622 356.17 199.483 355.186 196.504 357.138C192.835 359.542 192.632 359.143 195.433 355.021C199.108 349.612 198.563 349.423 193.601 354.385C188.879 359.107 185.948 360.322 188.184 356.631C191.064 351.875 191.852 350.303 191.522 349.972C191.33 349.781 187.975 351.236 184.065 353.205C174.909 357.816 165.114 360.131 158.149 359.33C155.223 358.994 147.573 356.659 141.149 354.141C117.939 345.044 109.205 342.533 98.9127 341.999C93.4597 341.717 87.0627 341.996 84.0167 342.649C81.0797 343.279 78.4667 343.584 78.2097 343.328C77.1807 342.299 84.7637 338.723 89.2407 338.126C96.2587 337.19 96.6307 335.302 89.6557 336.022C79.4727 337.073 64.9687 347.131 64.9687 353.143C64.9687 354.26 67.0927 360.118 69.6887 366.162C73.4327 374.877 75.5857 378.403 80.0897 383.202C83.2137 386.53 87.2777 390.107 89.1197 391.151C91.5457 392.526 90.7567 391.478 86.2577 387.352C82.0257 383.471 79.0297 379.592 76.8607 375.184C75.1087 371.625 73.8907 368.497 74.1557 368.233C74.4197 367.969 76.3627 370.259 78.4717 373.323C82.9957 379.891 92.0327 388.321 98.1317 391.663L102.469 394.04L98.5157 389.896C96.3417 387.618 95.0347 385.753 95.6107 385.753C96.1867 385.753 97.4357 386.611 98.3847 387.661C99.3347 388.71 102.442 390.622 105.29 391.911C109.967 394.026 111.893 394.253 125.17 394.253C133.255 394.253 139.555 394.529 139.17 394.867C136.85 396.898 117.576 400.725 109.469 400.764C106.517 400.779 105.862 401.038 106.969 401.753C107.794 402.286 110.269 402.743 112.469 402.768C115.685 402.805 116.125 403.014 114.713 403.837C113.747 404.399 111.047 405.257 108.713 405.743C104.921 406.533 105.242 406.607 111.721 406.44C115.71 406.337 118.972 406.526 118.971 406.859C118.97 407.193 114.439 412.143 108.903 417.859C98.5677 428.531 97.4987 429.05 104.156 420.162C106.253 417.362 107.969 414.775 107.969 414.412C107.969 414.05 106.907 413.753 105.609 413.753C104.31 413.753 101.59 412.628 99.5637 411.253C97.5377 409.878 95.7377 408.753 95.5637 408.753C95.3897 408.753 94.9847 410.972 94.6637 413.685C93.9817 419.435 91.2357 425.24 86.8137 430.276C84.0217 433.456 77.9687 437.591 77.9687 436.319C77.9687 436.052 80.2007 433.745 82.9287 431.193C89.0117 425.503 92.9687 417.944 92.9687 412.012V407.664L87.7187 413.018C84.8307 415.963 79.3387 420.241 75.5127 422.524C68.4237 426.754 65.0487 427.353 70.4537 423.421C76.5897 418.959 85.6927 410.823 87.3097 408.356C88.9747 405.815 88.9617 405.79 85.0037 403.771C78.9777 400.697 74.1137 395.976 70.6197 389.813L67.4687 384.253L66.9687 392.753L66.4687 401.253L64.9967 397.253C64.0667 394.725 63.5147 389.481 63.4967 383.004C63.4807 377.072 63.0727 372.886 62.5297 373.067C60.2827 373.814 57.8677 378.763 56.5857 385.253L55.2017 392.253L55.0857 387.092C55.0217 384.254 55.8507 379.098 56.9287 375.635C58.0057 372.172 58.7667 369.217 58.6177 369.069C57.5547 368.006 53.2317 373.083 50.8867 378.149C49.3317 381.506 48.0397 383.444 48.0147 382.455C47.9657 380.557 50.1867 375.656 53.8237 369.637L56.0087 366.021L52.5697 363.398C48.7767 360.505 46.5307 355.191 47.1927 350.678C47.7277 347.037 47.2557 347.038 42.2107 350.693C36.3027 354.972 31.8207 361.375 27.4707 371.749C24.2177 379.505 23.4687 380.624 22.5637 379.078C21.9757 378.074 21.4907 373.203 21.4867 368.253C21.4787 359.98 21.7397 358.775 24.7197 353.332C26.5027 350.076 27.7917 347.243 27.5847 347.036C26.7587 346.21 20.0867 356.559 18.4187 361.253C16.0077 368.04 16.1777 381.935 18.8617 397.364C20.0207 404.025 20.9687 410.571 20.9687 411.91C20.9687 413.248 18.9657 418.436 16.5167 423.438C14.0677 428.44 11.0927 435.394 9.90472 438.893C7.56272 445.792 6.22872 459.818 7.47872 464.399L8.25672 467.253L9.13472 463.324C9.96872 459.59 14.8217 450.759 16.0427 450.755C16.3577 450.754 15.5967 453.792 14.3517 457.506C9.82572 470.999 9.33372 486.869 12.9337 503.253C14.5547 510.634 19.0667 523.907 19.8177 523.505C28.1497 519.048 32.1887 517.704 35.4257 518.311C40.2407 519.214 39.8797 520.389 34.5417 521.19C27.3337 522.271 19.4997 528.725 22.9687 530.724C23.7937 531.2 26.4487 533.088 28.8677 534.921C31.2877 536.754 33.8457 538.682 34.5517 539.206C35.3957 539.833 37.6607 539.589 41.1527 538.497C44.0767 537.582 48.4937 536.55 50.9687 536.204L55.4687 535.575L48.5117 539.171C44.6847 541.149 41.1927 543.129 40.7517 543.57C40.3107 544.011 41.4657 546.145 43.3167 548.312C48.7037 554.617 53.4647 562.625 62.1527 579.997C78.6527 612.986 92.7947 637.843 103.609 652.863C109.071 660.448 121.36 673.753 122.905 673.753C123.331 673.753 123.949 670.533 124.279 666.598C124.609 662.663 125.267 659.055 125.741 658.581C126.225 658.097 127.132 661.684 127.806 666.745C129.263 677.689 133.518 690.761 138.063 698.261C143.34 706.969 154.182 717.207 166.728 725.334C175.552 731.049 200.424 742.753 203.745 742.753C204.143 742.753 200.194 740.384 194.969 737.489C180.322 729.373 174.31 725.028 163.881 715.019C155.232 706.72 145.969 695.049 145.969 692.452C145.969 691.909 148.657 694.397 151.942 697.982C155.227 701.567 161.865 707.479 166.692 711.12C175.639 717.867 190.838 726.301 192.833 725.626C193.441 725.421 190.988 723.269 187.383 720.844C179.082 715.26 171.765 707.838 162.485 695.589C155.206 685.982 147.321 673.068 148.198 672.191C148.451 671.938 150.762 674.411 153.335 677.685C161.408 687.961 168.284 694.972 173.671 698.422C176.532 700.254 179.013 701.753 179.183 701.753C179.354 701.753 176.502 698.64 172.845 694.836C166.043 687.758 161.456 679.977 160.416 673.753C159.92 670.783 160.305 671.2 162.961 676.512C164.683 679.954 168.617 685.499 171.704 688.834C177.028 694.584 184.795 700.753 186.712 700.753C187.198 700.753 187.684 698.615 187.793 696.003C188.06 689.585 189.832 682.066 192.175 677.406C194.891 672.003 195.379 673.422 193.374 680.892C191.458 688.033 190.903 704.086 192.517 705.701C193.248 706.431 193.926 703.893 194.756 697.317C196.008 687.405 199.024 677.782 201.531 675.702C202.348 675.023 203.161 674.645 203.338 674.86C203.514 675.076 203.287 679.078 202.834 683.753C201.772 694.72 202.571 704.493 205.246 713.253L207.384 720.253L208.033 711.253C209.713 687.928 217.979 676.895 239.469 669.289C241.059 668.727 239.574 667.691 232.219 664.235C227.132 661.844 222.969 659.677 222.969 659.419C222.969 659.16 229.14 660.908 236.683 663.303C244.226 665.698 250.549 667.506 250.734 667.322C250.918 667.137 245.854 663.695 239.479 659.673C233.104 655.652 227.402 651.775 226.808 651.059C226.214 650.343 232.798 653.131 241.44 657.255C250.082 661.379 257.39 664.753 257.68 664.753C258.519 664.753 253.046 657.651 248.569 652.93C246.314 650.553 241.83 646.97 238.606 644.968C231.855 640.778 232.397 639.768 239.826 642.697C250.401 646.865 257.44 652.773 264.092 663.064C266.224 666.363 267.969 668.816 267.969 668.513C267.969 668.211 267.076 665.071 265.984 661.536C262.046 648.786 253.101 638.237 241.729 632.931C238.573 631.458 235.985 629.922 235.979 629.518C235.967 628.62 244.231 629.382 248.803 630.7C264.69 635.281 276.285 653.263 279.144 677.753C280.059 685.589 279.974 688.999 278.663 697.222C277.788 702.704 277.263 707.381 277.496 707.613C278.124 708.241 281.695 699.524 283.49 692.977C284.354 689.829 285.332 681.71 285.663 674.934C286.376 660.367 287.939 660.587 287.936 675.253C287.934 688.391 285.96 697.343 280.742 707.892L276.469 716.53L280.299 713.494C284.681 710.021 294.141 699.27 298.892 692.365C300.666 689.787 303.675 684.26 305.578 680.083C307.481 675.907 309.257 672.708 309.525 672.975C310.295 673.746 307.927 683.627 305.296 690.615C303.973 694.131 303.071 697.189 303.293 697.41C304.115 698.232 313.63 682.363 325.272 660.753C328.822 654.164 332.02 650.117 339.498 642.753C363.15 619.46 384.73 591.079 392.533 573.003C394.016 569.566 395.622 566.753 396.1 566.753C397.63 566.753 397.018 576.984 394.962 585.753C393.866 590.428 392.71 595.371 392.392 596.737L391.814 599.22L393.853 596.628C398.016 591.335 416.905 559.64 422.905 547.877L425.04 543.693L420.641 537.973C415.449 531.222 409.837 520.415 407.585 512.831C406.7 509.851 406.122 507.267 406.301 507.088C406.48 506.909 408.727 510.08 411.296 514.134C413.864 518.188 418.977 524.759 422.658 528.735L429.351 535.964L437.187 520.318C441.496 511.712 446.348 501.333 447.97 497.252L450.917 489.832L445.402 484.316C439.154 478.068 434.545 469.235 432.906 460.368C432.315 457.172 432.059 454.33 432.337 454.052C432.615 453.774 434.62 457.08 436.792 461.4C441.314 470.392 448.449 480.276 452.653 483.371C456.047 485.869 464.019 490.037 464.494 489.561C464.676 489.379 464.221 486.311 463.483 482.742C460.995 470.714 460.798 465.464 462.361 452.753C467.032 414.748 464.348 370.67 455.974 347.873C454.281 343.264 453.157 339.232 453.476 338.912C454.393 337.995 458.594 343.693 461.838 350.253C465.61 357.883 467.576 363.996 469.88 375.261L471.719 384.253L472.094 378.258C472.731 368.079 471.157 346.489 469.01 335.956C466.129 321.819 461.712 308.858 455.873 297.408C453.112 291.993 451.331 287.859 451.916 288.22C453.715 289.332 460.461 299.802 465.334 309.046C467.883 313.882 469.969 317.351 469.969 316.755C469.969 316.159 468.358 308.407 466.388 299.527C462.523 282.098 459.592 275.032 450.86 262.092C445.197 253.699 436.09 243.599 430.569 239.587C428.424 238.028 427.233 236.753 427.923 236.753C430.523 236.753 442.978 244.082 449.447 249.418C453.71 252.934 455.968 254.284 455.616 253.108C455.312 252.088 454.394 248.328 453.576 244.753C449.421 226.575 443.33 208.518 428.444 170.253C423.42 157.338 415.922 144.07 404.469 127.826L394.469 113.643L383.969 114.167C378.194 114.456 371.015 115.364 368.016 116.185C365.016 117.007 362.366 117.483 362.126 117.244C361.338 116.455 375.793 110.023 382.33 108.253L388.737 106.519L385.103 100.582L381.469 94.6441L375.969 95.2731C372.944 95.6181 369.344 96.1511 367.969 96.4561C366.011 96.8911 365.72 96.7431 366.628 95.7731C368.236 94.0561 380.585 90.7531 385.397 90.7531C390.208 90.7531 389.694 90.1511 380.469 84.9761C371.832 80.1301 361.913 76.1391 354.833 74.6601C351.883 74.0441 349.019 73.0811 348.469 72.5211C346.92 70.9431 361.634 72.3381 367.273 74.3031C369.916 75.2241 372.339 75.7161 372.66 75.3961C372.98 75.0751 367.443 69.0211 360.355 61.9401C351.575 53.1691 344.926 47.5041 339.487 44.1601C332.06 39.5951 331.051 39.2541 324.987 39.2661C321.402 39.2731 315.994 39.6241 312.969 40.0451L307.469 40.8101L315.303 37.8981C319.612 36.2961 323.549 34.5731 324.053 34.0691C324.608 33.5141 322.503 32.6451 318.719 31.8651C315.281 31.1571 302.53 26.8201 290.382 22.2281C264.909 12.5991 254.788 9.7811 243.661 9.2201C239.283 9.0001 235.507 8.6241 235.268 8.3861C234.782 7.89992 236.286 7.26477 238.627 6.71949L257.5 8.5L309.5 27L333.5 34L328 36L347 45L380 77.5H375L393 89.5L384.5 94L401 118.5L419.5 147.5L442.5 201L461.5 267L451.5 258L465 278L474.5 333L468.5 323.5L474.5 359.5V395.5L465 376L468.5 434.5L465 466L468.5 500L456.5 490.5L423 552L397.5 598L386 607.5V588.5L346.5 641L327.5 659.5L308 693.5L297.5 705V697.5L279 718.5L266.5 727.5L274.5 707V664.5L269 702.5L255.5 736.5L244.5 743.5L246.5 726.5L240 743.5L228.5 750.5L234.5 736.5L231.5 718.5L229.5 734.5L221 753L216.5 743.5L213.5 748L195 741L158.5 723L131.5 697.5L125.5 675.5L122.5 681.5L84.5 632L81.75 626.5L79 623.5L54.5 578.5L31.5 548.5L12.5 530L2.5 499.5V485.5L9.5 471.5L2.5 475L0 441.5L7.5 421V381.5L12.5 357.5L7.5 362.5V334L9.5 300L22.5 280H18L9.5 287L15 257.5L36 237.5L18 247L25.5 224.5L50 187.5L27.5 216.5L33 197.5L45.5 159.5L68.5 122L55.5 137.5L60.5 122L68.5 107.5L78 94L68.5 101.5L78 78.5L100.5 49L123.207 36.5337L129 31.5L156.5 16.5L214 3L247.5 0.5L257.5 3L250.258 3.81989ZM322.215 322.105C330.88 316.896 337.969 312.435 337.969 312.193C337.969 311.951 337.632 311.79 337.219 311.835C335.739 311.998 320.369 318.46 315.469 320.98C309.93 323.829 290.377 337.856 290.433 338.941C290.493 340.083 279.888 347.276 273.118 350.685C269.625 352.445 267.004 354.121 267.294 354.411C267.584 354.701 270.238 354.235 273.192 353.377C279.169 351.639 286.514 347.114 298.465 337.805C302.862 334.38 313.55 327.315 322.215 322.105ZM336.754 319.288C341.861 316.076 346.275 313.067 346.563 312.601C347.357 311.316 346.97 311.459 338.416 315.608C325.364 321.939 298.674 340.791 300.366 342.483C300.632 342.75 306.839 338.953 314.16 334.047C321.48 329.141 331.647 322.499 336.754 319.288ZM373.278 330.711C375.577 330.631 366.537 323.694 360.284 320.739C351.092 316.396 345.253 316.591 337.113 321.513C329.068 326.378 314.969 336.797 314.969 337.878C314.969 338.339 319.132 335.966 324.219 332.605C340.806 321.645 346.206 320.104 357.469 323.112C362.948 324.576 370.472 328.139 371.46 329.739C371.805 330.297 372.623 330.734 373.278 330.711ZM245.458 357.328C241.579 352.242 241.928 346.653 246.696 337.503C247.684 335.608 244.896 337.031 243.068 339.354C238.949 344.59 239.127 353.473 243.444 358.131C246.985 361.953 248.519 361.341 245.458 357.328ZM358.331 377.313C363.212 373.313 373.093 357.514 375.41 350.003C376.696 345.834 374.331 347.71 371.984 352.72C366.255 364.953 341.764 383.26 320.284 391.365C312.103 394.453 297.961 397.701 292.573 397.731C289.32 397.749 287.882 397.01 283.866 393.253C277.786 387.567 275.758 387.425 280.283 393.003C284.653 398.389 291.274 408.781 290.701 409.354C290.462 409.593 289.066 408.057 287.599 405.94C284.496 401.463 280.7 397.779 276.469 395.141C274.172 393.708 274.797 394.752 279.137 399.591C282.255 403.068 286.434 409.139 288.426 413.083C290.417 417.026 291.241 419.135 290.257 417.768C284.953 410.399 276.123 401.212 271.213 397.954C265.796 394.361 265.374 394.255 256.718 394.316L247.802 394.379L252.136 392.017L256.469 389.656L252.709 390.143C248.183 390.73 242.969 394.215 242.969 396.654C242.969 400.609 241.506 399.292 237.763 391.968C232.92 382.493 229.689 378.163 225.603 375.672C220.709 372.687 219.974 373.118 219.924 379.003C219.899 381.89 219.261 385.603 218.505 387.253L217.131 390.253L217.045 386.253C216.94 381.43 215.196 374.753 214.041 374.753C213.583 374.753 209.69 379.028 205.391 384.253C201.092 389.478 197.432 393.753 197.257 393.753C197.083 393.753 198.316 390.941 199.996 387.503C202.867 381.633 201.946 381.76 197.787 387.807C196.185 390.137 196.173 390.021 197.539 385.338C198.327 382.635 198.751 380.202 198.481 379.932C197.693 379.144 190.044 382.913 186.095 386.036C181.324 389.808 178.271 394.98 176.892 401.625L175.769 407.033L173.619 403.221C172.437 401.124 170.809 399.191 170.002 398.925C168.83 398.539 168.886 398.978 170.279 401.104C171.238 402.568 172.466 404.93 173.007 406.354C173.913 408.737 173.642 408.636 169.6 405.077C165.66 401.609 154.969 396.896 154.969 398.627C154.969 399.006 157.893 401.102 161.467 403.285C165.04 405.467 167.965 407.548 167.967 407.909C167.968 408.27 165.675 408.881 162.87 409.267C155.876 410.229 143.757 416.512 135.416 423.501C119.596 436.757 109.068 454.045 98.4197 484.253C86.9867 516.689 83.6867 534.939 86.4047 550.694C87.9727 559.775 91.3417 570.248 93.0337 571.293C94.2987 572.075 94.2037 571.1 92.4577 565.344C91.6387 562.644 90.9987 558.369 91.0347 555.844L91.1007 551.253L92.5027 556.459C94.4747 563.778 96.3657 568.017 100.051 573.372C103.69 578.661 104.328 578.248 105.384 569.918C105.756 566.985 107.008 562.052 108.166 558.957L110.271 553.33L111.538 557.623C112.236 559.984 113.629 562.825 114.635 563.936C117.363 566.951 122.819 565.908 135.739 559.904C148.164 554.131 155.297 552.015 165.469 551.088C172.872 550.414 173.913 549.761 173.98 545.753C174.003 544.378 174.862 541.453 175.889 539.253L177.756 535.253L177.249 540.753C176.841 545.177 177.114 546.712 178.644 548.601L180.545 550.948L180.176 544.101C179.844 537.946 182.865 519.524 184.469 517.919C184.756 517.633 186.223 518.552 187.729 519.962C197.896 529.473 214.374 528.439 239.969 516.684L248.469 512.78L243.584 517.302C240.897 519.788 234.709 524.583 229.834 527.955C224.959 531.328 221.186 534.304 221.45 534.567C222.396 535.514 234.627 528.752 242.788 522.77C247.363 519.416 254.062 513.674 257.674 510.008L264.241 503.343L260.855 500.501C258.688 498.682 253.242 496.326 245.724 493.956C239.264 491.919 233.978 490.028 233.978 489.753C233.977 489.478 235.923 488.453 238.302 487.475C240.68 486.497 247.418 482.819 253.274 479.302C284.801 460.366 287.697 453.11 274.383 426.403C271.382 420.385 269.135 415.253 269.389 415C270.582 413.806 289.653 426.789 306.167 440.037L309.865 443.004L314.667 440.19C317.308 438.643 323.908 434.326 329.334 430.598C334.948 426.741 337.575 424.782 340.155 424.842C342.793 424.904 345.383 427.077 351.067 431.491C354.317 434.015 357.202 435.853 357.478 435.577C357.754 435.301 355.226 431.795 351.86 427.785L345.74 420.496L349.979 422.875C354.711 425.529 366.66 435.769 369.967 440.003C373.068 443.975 374.331 443.381 372.095 439.003C369.193 433.321 361.735 423.559 356.313 418.345L351.469 413.687L356.154 409.308C362.153 403.701 365.35 397.6 364.544 393.3C363.902 389.88 359.049 384.231 355.892 383.229C353.058 382.329 353.491 381.279 358.331 377.313ZM305.5 364.171C309.007 362.507 318.969 352.627 318.969 350.813C318.969 349.058 303.307 349.43 302.627 351.201C301.499 354.14 295.937 356.025 290.332 355.366C285.426 354.789 284.794 354.967 281.508 357.852C279.562 359.562 277.969 361.866 277.969 362.973C277.969 364.857 278.403 364.944 284.719 364.327C288.431 363.965 292.819 363.461 294.469 363.206C297.283 362.772 297.321 362.807 295.074 363.77C293.756 364.334 292.94 365.057 293.259 365.376C294.201 366.319 303.2 362.958 307.496 360.06C309.888 358.447 310.898 358.081 310.035 359.141C309.246 360.11 306.546 361.972 304.035 363.281C298.975 365.917 300.223 366.675 305.5 364.171ZM126.318 358.009C125.987 356.688 124.618 355.19 123.277 354.68C120.748 353.719 116.923 353.635 113.469 354.466C110.005 355.299 109.732 356.456 112.852 357.08C114.507 357.411 116.38 358.652 117.014 359.838C117.811 361.326 117.828 361.784 117.069 361.315C115.107 360.103 115.904 362.523 118.471 365.573C119.847 367.208 122.884 369.525 125.221 370.721L129.469 372.897L125.969 372.278C122.68 371.696 122.586 371.752 124.41 373.206C128.434 376.413 138.119 374.827 146.914 369.521C153.482 365.559 155.19 362.579 149.117 365.677C144.274 368.148 143.287 368.28 144.988 366.23C146.059 364.939 145.964 364.807 144.36 365.365C142.609 365.973 142.616 365.908 144.459 364.475C146.411 362.959 146.395 362.904 143.644 361.651C141.433 360.643 139.905 360.623 136.428 361.553C131.07 362.986 127.23 361.639 126.318 358.009ZM326.456 371.29C331.086 368.614 336.789 364.474 339.13 362.089C341.47 359.704 342.954 357.776 342.427 357.803C341.9 357.831 338.094 359.865 333.969 362.323C320.677 370.243 310.138 373.54 292.469 375.307C287.167 375.837 285.954 376.222 287.469 376.896C288.824 377.499 288.018 377.603 284.969 377.218C279.47 376.525 280.548 378.23 286.486 379.62C289.556 380.338 289.896 380.596 287.969 380.742C283.923 381.049 294.73 383.711 300.114 383.734C305.624 383.757 316.305 380.622 323.969 376.732C330.023 373.66 338.398 367.849 337.732 367.183C337.499 366.95 333.168 369.069 328.107 371.891C323.046 374.713 318.71 376.827 318.471 376.588C318.233 376.35 321.826 373.965 326.456 371.29ZM175.219 371.29C177.832 369.873 179.969 368.498 179.969 368.234C179.969 366.71 169.344 370.834 160.668 375.724C154.266 379.333 145.269 381.753 138.259 381.753C134.946 381.753 132.969 382.182 132.969 382.901C132.969 383.719 135.477 383.888 141.719 383.489C148.692 383.043 149.657 383.13 146.469 383.921C144.269 384.466 138.059 384.719 132.669 384.483C125.799 384.181 123.184 384.368 123.923 385.107C125.509 386.693 142.886 387.147 150.6 385.804C157.995 384.516 172.467 378.367 171.559 376.898C171.248 376.396 172.348 375.424 174.003 374.739C177.733 373.194 179.205 371.23 175.844 372.283C170.71 373.892 170.636 373.775 175.219 371.29ZM139.698 369.357C139.366 369.689 138.503 369.725 137.782 369.436C136.984 369.117 137.221 368.88 138.386 368.832C139.44 368.789 140.03 369.025 139.698 369.357ZM202.436 400.341C204.342 399.314 206.926 396.98 208.177 395.155C210.944 391.116 211.936 391.903 212.899 398.9L213.636 404.253L214.918 399.515L216.2 394.777L218.835 396.339C222.334 398.414 224.059 399.348 224.325 400.595C224.591 401.836 223.41 403.388 221.097 406.685C217.091 412.397 213.459 419.577 214.202 420.319C214.394 420.511 217.008 417.202 220.01 412.965C224.42 406.741 226.238 405.002 229.469 403.917C234.121 402.354 243.996 402.927 249.109 405.057L252.469 406.457L247.219 405.978C240.884 405.399 240.387 406.278 246.219 407.746C250.595 408.847 260.189 412.866 259.673 413.382C259.514 413.542 256.55 412.79 253.087 411.713C246.165 409.558 234.803 409.111 230.284 410.814C225.829 412.494 220.969 417.746 217.848 424.253C214.509 431.216 214.011 436.736 216.719 436.783C218.373 436.812 218.372 436.871 216.698 437.845C215.724 438.412 215.133 439.21 215.386 439.619C215.638 440.027 214.5 440.869 212.856 441.489C210.078 442.538 209.799 442.429 208.892 439.935C208.355 438.46 207.406 435.903 206.784 434.253C203.831 426.422 193.303 415.899 184.876 412.356L181.547 410.956L185.16 409.447C187.147 408.616 189.813 406.531 191.083 404.813L193.393 401.689L195.296 405.471C197.37 409.591 200.821 413.753 202.164 413.753C202.629 413.753 202.101 411.971 200.989 409.793C198.157 404.241 198.423 402.502 202.436 400.341ZM123.586 466.555C128.07 452.334 133.38 443.1 144.315 430.503C150.954 422.855 153.364 421.682 149.452 428.003C141.043 441.588 138.472 450.817 141.519 456.475C144.863 462.685 157.847 470.793 179.969 480.486C181.863 481.316 177.015 481.542 159.969 481.417C147.594 481.327 135.219 481.607 132.469 482.04L127.469 482.828L129.969 480.812C131.344 479.703 133.928 478.512 135.71 478.165C137.511 477.814 138.676 477.087 138.331 476.529C137.2 474.7 129.399 476.58 121.719 480.534C120.159 481.337 121.065 474.55 123.586 466.555ZM155.905 438.954C154.891 434.48 156.49 429.275 159.638 426.798C161.069 425.673 162.965 424.753 163.853 424.753C164.741 424.753 168.167 427.579 171.468 431.033C174.769 434.486 180.234 439.399 183.613 441.95C186.993 444.5 192.081 449.437 194.919 452.92C204.602 464.801 205.694 465.753 209.635 465.753C215.019 465.753 221.627 461.987 225.499 456.712C227.362 454.174 232.522 448.624 236.964 444.38C253.601 428.485 261.46 426.611 261.277 438.584C261.205 443.365 259.39 448.7 256.628 452.253C255.216 454.069 255.21 453.85 256.561 449.873C258.922 442.922 257.567 442.632 254.897 449.517C253.568 452.945 251.665 456.762 250.668 458.001C249.169 459.864 249.218 459.513 250.95 455.969C254.02 449.689 255.025 446.753 254.105 446.753C253.657 446.753 252.822 447.765 252.249 449.003C250.117 453.611 242.352 461.139 234.52 466.192C230.076 469.058 225.214 472.862 223.715 474.643C220.561 478.391 219.447 478.114 218.555 473.361C217.454 467.492 212.83 467.827 208.809 474.067C207.68 475.819 206.967 476.578 207.225 475.753C207.334 475.404 207.492 474.9 207.667 474.342C207.905 473.581 208.176 472.717 208.399 472.003C208.811 470.689 208.683 469.753 208.093 469.753C206.544 469.753 204.049 473.81 203.369 477.433C203.034 479.22 202.132 481.203 201.364 481.84C200.212 482.796 199.965 482.324 199.947 479.125C199.924 474.985 197.004 467.511 194.903 466.212C193.955 465.627 193.835 465.915 194.434 467.339C196.732 472.802 197.879 476.456 197.862 478.253C197.845 479.946 197.691 479.873 196.856 477.783C194.797 472.624 190.598 468.635 179.64 461.429C168.563 454.146 163.224 448.952 160.842 443.147C159.951 440.975 159.553 440.677 159.248 441.951C159.025 442.884 159.357 444.61 159.987 445.786C160.616 446.962 160.903 448.153 160.624 448.432C159.909 449.147 156.798 442.899 155.905 438.954ZM354.945 554.591C352.596 541.569 344.667 523.352 326.723 489.753C316.881 471.322 312.693 464.314 314.175 468.753C318.106 480.524 319.595 485.996 322.869 500.687L326.716 517.951L334.092 525.502C340.3 531.857 340.866 532.695 337.666 530.789C335.575 529.544 333.61 528.779 333.3 529.089C332.99 529.399 334.749 533.163 337.209 537.453C339.669 541.743 344.261 550.318 347.413 556.508C350.566 562.698 353.521 567.53 353.98 567.246C355.65 566.214 356.064 560.788 354.945 554.591ZM298.969 562.757C298.969 560.76 277.274 552.66 262.969 549.316C254.618 547.364 236.114 546.642 223.969 547.793C213.153 548.818 198.884 551.489 197.618 552.725C197.15 553.182 210.425 553.754 227.118 553.996C260.173 554.475 271.181 555.664 289.086 560.691C294.522 562.217 298.969 563.147 298.969 562.757ZM243.469 561.752C225.319 561.247 203.494 560.177 194.969 559.375C164.443 556.504 158.256 556.624 147.469 560.291C135.52 564.354 116.673 575.551 112.926 580.813C111.775 582.43 111.113 583.753 111.456 583.753C111.798 583.753 114.642 582.015 117.774 579.891C129.507 571.936 132.062 571.104 148.469 569.896C156.719 569.288 164.594 568.545 165.969 568.244C168.201 567.755 168.244 567.797 166.37 568.637C165.216 569.154 159.591 570.6 153.87 571.851C148.15 573.102 143.041 574.491 142.519 574.939C139.823 577.249 161.242 574.04 170.953 570.68L176.893 568.624L181.181 571.108C183.539 572.474 188.844 574.64 192.969 575.922C199.765 578.034 202.299 578.25 219.969 578.218C239.064 578.183 263.097 575.873 280.969 572.354C287.149 571.137 287.335 571.019 284.752 569.951C283.257 569.333 278.982 568.134 275.252 567.287L268.469 565.746L279.906 566.237C286.423 566.516 290.94 566.353 290.406 565.857C288.213 563.819 274.447 562.615 243.469 561.752ZM164.261 595.745C170.174 593.533 177.44 587.884 178.222 584.892C179.154 581.331 177.298 580.217 175.665 583.357C173.742 587.055 170.401 590.085 165.969 592.15C164.044 593.047 163.358 593.213 164.445 592.517C165.532 591.822 168.007 589.678 169.945 587.753L173.469 584.253L170.929 583.957C167.781 583.59 146.591 589.933 139.62 593.329C136.787 594.709 135.369 595.108 136.469 594.216C139.582 591.69 146.8 588.258 154.469 585.656C160.089 583.749 160.932 583.216 158.743 582.953C154.741 582.471 144.501 585.35 136.486 589.211C128.536 593.04 131.127 590.235 139.459 585.992C145.552 582.89 144.104 581.95 137.247 584.555C129.912 587.342 123.159 592.385 119.919 597.493C116.496 602.891 114.386 611.398 115.48 615.396C116.209 618.062 116.34 617.885 117.441 612.753C118.581 607.441 121.708 600.158 122.506 600.957C122.72 601.171 122.186 603.575 121.319 606.3C120.451 609.024 119.681 615.078 119.606 619.753C119.458 629.047 121.162 633.815 126.372 638.677C129.356 641.463 129.625 640.922 127.395 636.61C124.984 631.948 126.235 632.27 129.987 637.277C133.17 641.526 137.688 645.368 138.521 644.535C138.729 644.327 137.333 641.558 135.42 638.381C131.848 632.452 127.928 622.202 128.021 619.035C128.05 618.055 128.975 619.6 130.078 622.468C132.464 628.675 139.494 635.386 144.618 636.347C150.205 637.395 153.676 636.105 163.319 629.399C168.351 625.899 173.931 622.286 175.718 621.369C178.776 619.801 178.697 619.973 174.371 624.298C171.844 626.826 169.997 629.114 170.267 629.385C170.537 629.655 173.843 627.653 177.614 624.936C187.123 618.084 195.939 614.795 206.218 614.265C214.162 613.855 214.242 613.872 208.357 614.72C199.365 616.017 194 617.609 189.14 620.423C183.965 623.42 184.202 624.423 189.594 622.339C202.625 617.301 215.406 616.011 228.469 618.414C233.969 619.425 241.921 620.253 246.14 620.253C252.72 620.253 254.152 619.933 256.205 618.003C258.463 615.879 259.465 615.748 274.033 615.664L289.469 615.575L280.543 612.655C271.71 609.765 268.142 608.098 272.971 609.118C274.345 609.408 279.744 609.888 284.969 610.186C295.365 610.777 294.867 610.103 282.72 607.142C278.458 606.103 274.971 604.993 274.97 604.676C274.968 603.732 289.897 598.887 297.875 597.242C301.948 596.402 310.048 595.438 315.875 595.1C328.428 594.372 330.359 593.71 326.779 591.364C318.625 586.022 299.344 581.678 284.469 581.831C273.672 581.943 273.672 583.434 284.469 584.245C295.76 585.093 306.994 587.655 312.653 590.672L316.469 592.706L310.469 591.98C307.169 591.58 298.394 591.253 290.969 591.253C278.268 591.253 277.138 591.416 271.873 594.001C266.705 596.539 261.186 601.625 252.35 611.99C247.734 617.407 244.785 617.759 237.506 613.765C211.911 599.722 209.942 599.674 180.192 612.355C150.925 624.831 140.106 624.179 135.952 609.693C135.215 607.124 135.479 607.25 139.39 611.332C143.421 615.539 143.889 615.748 149.048 615.651C153.997 615.557 154.175 615.479 151.092 614.751C146.837 613.746 143.106 611.006 140.219 606.763C137.522 602.801 137.274 600.814 139.756 603.06C143.162 606.143 149.33 607.99 156.005 607.928C161.803 607.873 167.969 606.559 167.969 605.378C167.969 605.144 164.154 604.953 159.491 604.953C150.841 604.953 143.921 602.809 140.927 599.203C139.891 597.953 141.049 597.753 149.309 597.753C156.458 597.753 160.258 597.243 164.261 595.745Z"/>
</svg>
