<svg width="466" height="740" viewBox="0 0 466 740" fill="none" xmlns="http://www.w3.org/2000/svg">
<path fill="white" fillRule="evenodd" clipRule="evenodd" d="M218 0.655003C153.568 13.014 147.88 14.759 128.905 27.988C112.695 39.291 90.071 58.404 91.368 59.701C91.596 59.929 94.028 58.734 96.773 57.045C104.314 52.404 119.516 45.542 128.587 42.684C141.271 38.687 161.569 34.979 179.126 33.452C190.661 32.448 189.421 34.435 177.688 35.756C172.085 36.386 163.484 38.07 158.575 39.497C150.149 41.947 129.614 49.952 130.22 50.55C130.374 50.702 132.525 50.435 135 49.957C150.592 46.944 168.328 50.795 183.636 60.517C196.395 68.621 213.138 88.607 224.503 109.298C228.704 116.947 228.734 119.219 224.551 112.897C218.667 104.006 199.857 86 196.453 86C195.699 86 194.752 88.604 194.059 92.585C192.67 100.561 188.51 111.301 183.429 120.029C179.757 126.339 171.308 135.288 149.894 155.555C138.702 166.147 131.842 175.465 124.534 190C120.061 198.897 114 213.691 114 215.713C114 216.039 116.499 212.572 119.554 208.008C130.285 191.976 141.416 179.823 154.5 169.855C160.266 165.462 168.843 160.51 169.518 161.185C169.696 161.363 165.133 165.332 159.377 170.004C141.027 184.901 124.567 204.973 114.849 224.3C112.663 228.649 111.015 232.323 111.187 232.465C111.359 232.607 116 231.646 121.5 230.329C127.266 228.949 136.369 227.683 143 227.34C154.292 226.755 154.834 226.829 172.965 231.401C196.461 237.327 211.186 238.885 227.896 237.214C239.413 236.063 254.249 232.474 260.187 229.403C261.836 228.55 263.414 228.08 263.692 228.359C264.548 229.214 255.002 233.555 244.994 236.862C230.898 241.519 222.737 242.965 210.5 242.972C199.631 242.979 196.022 242.399 167.5 236.064C153.703 233 143.764 232.493 135.522 234.434C128.594 236.065 120 240.251 120 241.994C120 243.144 159.946 256.287 173.4 259.563C192.707 264.265 210.808 263.852 228.476 258.306C232.889 256.92 244.341 252.463 253.924 248.401C263.507 244.338 271.519 241.186 271.729 241.396C273.189 242.856 240.26 260.025 228.141 264.121C216.742 267.974 212.391 270.931 211.058 275.729C210.482 277.803 210.009 280.26 210.006 281.189C210.001 282.448 208.791 283.037 205.25 283.503C202.637 283.847 199.262 284.36 197.75 284.644C194.392 285.273 194.37 284.941 197.426 279.678C200.515 274.356 201.763 268.178 199.859 267.629C199.112 267.414 192.65 266.491 185.5 265.578C169.154 263.492 151.746 259.946 135.956 255.487C129.209 253.582 120.914 251.739 117.521 251.392C108.924 250.511 98.177 252.546 90.112 256.58C82.603 260.337 72.83 269.4 69.066 276.096C66.543 280.585 66.775 280.551 74.023 275.371C76.511 273.593 82.136 270.928 86.523 269.449C93.754 267.011 95.435 266.812 104.5 267.324C115.001 267.917 124.464 270.14 152.239 278.539C177.004 286.027 188.383 291.522 193.248 298.343C195.165 301.031 195.5 302.78 195.5 310.117C195.5 318.03 195.622 318.561 196.989 316.617C197.809 315.453 199.222 311.575 200.131 308L201.783 301.5L202.508 306.27C202.913 308.931 202.778 312.832 202.204 315.093C201.284 318.718 201.351 319.065 202.838 318.373C203.752 317.948 206.181 317.577 208.237 317.55L211.973 317.5L211.369 309.5C210.618 299.554 211.994 294.119 216.535 289.092C224.341 280.453 250.721 270.326 274 267.033C287.981 265.055 289 264.975 289 265.861C289 266.348 284.965 267.484 280.033 268.386C266.535 270.856 247.427 276.605 239 280.733L231.5 284.406L243 285.096C256.35 285.897 263.31 288.013 272.682 294.119C278.883 298.159 286.641 305.693 285.635 306.698C285.349 306.984 283.852 306.327 282.308 305.237C277.996 302.196 269.977 298.351 263.145 296.049C256.528 293.82 245 291.889 245 293.011C245 293.384 245.946 294.546 247.102 295.593C250.292 298.48 252 302.457 252 307C252 312.205 249.944 316.178 245.495 319.572C240.388 323.467 234.829 323.806 227.467 320.67L221.5 318.129L219.718 320.314C218.738 321.516 217.25 323.765 216.411 325.312C214.702 328.461 212.003 342.498 212.001 348.25C211.999 355.142 209.195 351.742 208.909 344.5C208.794 341.6 208.746 341.634 207.472 345.5C206.747 347.7 206.119 350.711 206.077 352.191C205.971 355.898 204.209 356.654 201.649 354.091C199.771 352.21 199.518 350.907 199.646 343.743C199.782 336.144 199.691 335.743 198.388 338.228C197.616 339.703 196.32 344.38 195.508 348.623C194.543 353.668 193.274 357.144 191.842 358.669C188.685 362.028 187.703 361.535 190.011 357.75C192.653 353.417 192.514 352.433 189.535 354.385C185.866 356.789 185.663 356.39 188.464 352.268C192.139 346.859 191.594 346.67 186.632 351.632C181.91 356.354 178.979 357.569 181.215 353.878C184.095 349.122 184.883 347.55 184.553 347.219C184.361 347.028 181.006 348.483 177.096 350.452C167.94 355.063 158.145 357.378 151.18 356.577C148.254 356.241 140.604 353.906 134.18 351.388C110.97 342.291 102.236 339.78 91.944 339.246C86.491 338.964 80.094 339.243 77.048 339.896C74.111 340.526 71.498 340.831 71.241 340.575C70.212 339.546 77.795 335.97 82.272 335.373C89.29 334.437 89.662 332.549 82.687 333.269C72.504 334.32 58 344.378 58 350.39C58 351.507 60.124 357.365 62.72 363.409C66.464 372.124 68.617 375.65 73.121 380.449C76.245 383.777 80.309 387.354 82.151 388.398C84.577 389.773 83.788 388.725 79.289 384.599C75.057 380.718 72.061 376.839 69.892 372.431C68.14 368.872 66.922 365.744 67.187 365.48C67.451 365.216 69.394 367.506 71.503 370.57C76.027 377.138 85.064 385.568 91.163 388.91L95.5 391.287L91.547 387.143C89.373 384.865 88.066 383 88.642 383C89.218 383 90.467 383.858 91.416 384.908C92.366 385.957 95.473 387.869 98.321 389.158C102.998 391.273 104.924 391.5 118.201 391.5C126.286 391.5 132.586 391.776 132.201 392.114C129.881 394.145 110.607 397.972 102.5 398.011C99.548 398.026 98.893 398.285 100 399C100.825 399.533 103.3 399.99 105.5 400.015C108.716 400.052 109.156 400.261 107.744 401.084C106.778 401.646 104.078 402.504 101.744 402.99C97.952 403.78 98.273 403.854 104.752 403.687C108.741 403.584 112.003 403.773 112.002 404.106C112.001 404.44 107.47 409.39 101.934 415.106C91.599 425.778 90.53 426.297 97.187 417.409C99.284 414.609 101 412.022 101 411.659C101 411.297 99.938 411 98.64 411C97.341 411 94.621 409.875 92.595 408.5C90.569 407.125 88.769 406 88.595 406C88.421 406 88.016 408.219 87.695 410.932C87.013 416.682 84.267 422.487 79.845 427.523C77.053 430.703 71 434.838 71 433.566C71 433.299 73.232 430.992 75.96 428.44C82.043 422.75 86 415.191 86 409.259V404.911L80.75 410.265C77.862 413.21 72.37 417.488 68.544 419.771C61.455 424.001 58.08 424.6 63.485 420.668C69.621 416.206 78.724 408.07 80.341 405.603C82.006 403.062 81.993 403.037 78.035 401.018C72.009 397.944 67.145 393.223 63.651 387.06L60.5 381.5L60 390L59.5 398.5L58.028 394.5C57.098 391.972 56.546 386.728 56.528 380.251C56.512 374.319 56.104 370.133 55.561 370.314C53.314 371.061 50.899 376.01 49.617 382.5L48.233 389.5L48.117 384.339C48.053 381.501 48.882 376.345 49.96 372.882C51.037 369.419 51.798 366.464 51.649 366.316C50.586 365.253 46.263 370.33 43.918 375.396C42.363 378.753 41.071 380.691 41.046 379.702C40.997 377.804 43.218 372.903 46.855 366.884L49.04 363.268L45.601 360.645C41.808 357.752 39.562 352.438 40.224 347.925C40.759 344.284 40.287 344.285 35.242 347.94C29.334 352.219 24.852 358.622 20.502 368.996C17.249 376.752 16.5 377.871 15.595 376.325C15.007 375.321 14.522 370.45 14.518 365.5C14.51 357.227 14.771 356.022 17.751 350.579C19.534 347.323 20.823 344.49 20.616 344.283C19.79 343.457 13.118 353.806 11.45 358.5C9.03897 365.287 9.20897 379.182 11.893 394.611C13.052 401.272 14 407.818 14 409.157C14 410.495 11.997 415.683 9.54797 420.685C7.09897 425.687 4.12397 432.641 2.93597 436.14C0.593974 443.039 -0.740029 457.065 0.509971 461.646L1.28797 464.5L2.16597 460.571C2.99997 456.837 7.85297 448.006 9.07397 448.002C9.38897 448.001 8.62797 451.039 7.38297 454.753C2.85697 468.246 2.36497 484.116 5.96497 500.5C7.58597 507.881 12.098 521.154 12.849 520.752C21.181 516.295 25.22 514.951 28.457 515.558C33.272 516.461 32.911 517.636 27.573 518.437C20.365 519.518 12.531 525.972 16 527.971C16.825 528.447 19.48 530.335 21.899 532.168C24.319 534.001 26.877 535.929 27.583 536.453C28.427 537.08 30.692 536.836 34.184 535.744C37.108 534.829 41.525 533.797 44 533.451L48.5 532.822L41.543 536.418C37.716 538.396 34.224 540.376 33.783 540.817C33.342 541.258 34.497 543.392 36.348 545.559C41.735 551.864 46.496 559.872 55.184 577.244C71.684 610.233 85.826 635.09 96.64 650.11C102.102 657.695 114.391 671 115.936 671C116.362 671 116.98 667.78 117.31 663.845C117.64 659.91 118.298 656.302 118.772 655.828C119.256 655.344 120.163 658.931 120.837 663.992C122.294 674.936 126.549 688.008 131.094 695.508C136.371 704.216 147.213 714.454 159.759 722.581C168.583 728.296 193.455 740 196.776 740C197.174 740 193.225 737.631 188 734.736C173.353 726.62 167.341 722.275 156.912 712.266C148.263 703.967 139 692.296 139 689.699C139 689.156 141.688 691.644 144.973 695.229C148.258 698.814 154.896 704.726 159.723 708.367C168.67 715.114 183.869 723.548 185.864 722.873C186.472 722.668 184.019 720.516 180.414 718.091C172.113 712.507 164.796 705.085 155.516 692.836C148.237 683.229 140.352 670.315 141.229 669.438C141.482 669.185 143.793 671.658 146.366 674.932C154.439 685.208 161.315 692.219 166.702 695.669C169.563 697.501 172.044 699 172.214 699C172.385 699 169.533 695.887 165.876 692.083C159.074 685.005 154.487 677.224 153.447 671C152.951 668.03 153.336 668.447 155.992 673.759C157.714 677.201 161.648 682.746 164.735 686.081C170.059 691.831 177.826 698 179.743 698C180.229 698 180.715 695.862 180.824 693.25C181.091 686.832 182.863 679.313 185.206 674.653C187.922 669.25 188.41 670.669 186.405 678.139C184.489 685.28 183.934 701.333 185.548 702.948C186.279 703.678 186.957 701.14 187.787 694.564C189.039 684.652 192.055 675.029 194.562 672.949C195.379 672.27 196.192 671.892 196.369 672.107C196.545 672.323 196.318 676.325 195.865 681C194.803 691.967 195.602 701.74 198.277 710.5L200.415 717.5L201.064 708.5C202.744 685.175 211.01 674.142 232.5 666.536C234.09 665.974 232.605 664.938 225.25 661.482C220.163 659.091 216 656.924 216 656.666C216 656.407 222.171 658.155 229.714 660.55C237.257 662.945 243.58 664.753 243.765 664.569C243.949 664.384 238.885 660.942 232.51 656.92C226.135 652.899 220.433 649.022 219.839 648.306C219.245 647.59 225.829 650.378 234.471 654.502C243.113 658.626 250.421 662 250.711 662C251.55 662 246.077 654.898 241.6 650.177C239.345 647.8 234.861 644.217 231.637 642.215C224.886 638.025 225.428 637.015 232.857 639.944C243.432 644.112 250.471 650.02 257.123 660.311C259.255 663.61 261 666.063 261 665.76C261 665.458 260.107 662.318 259.015 658.783C255.077 646.033 246.132 635.484 234.76 630.178C231.604 628.705 229.016 627.169 229.01 626.765C228.998 625.867 237.262 626.629 241.834 627.947C257.721 632.528 269.316 650.51 272.175 675C273.09 682.836 273.005 686.246 271.694 694.469C270.819 699.951 270.294 704.628 270.527 704.86C271.155 705.488 274.726 696.771 276.521 690.224C277.385 687.076 278.363 678.957 278.694 672.181C279.407 657.614 280.97 657.834 280.967 672.5C280.965 685.638 278.991 694.59 273.773 705.139L269.5 713.777L273.33 710.741C277.712 707.268 287.172 696.517 291.923 689.612C293.697 687.034 296.706 681.507 298.609 677.33C300.512 673.154 302.288 669.955 302.556 670.222C303.326 670.993 300.958 680.874 298.327 687.862C297.004 691.378 296.102 694.436 296.324 694.657C297.146 695.479 306.661 679.61 318.303 658C321.853 651.411 325.051 647.364 332.529 640C356.181 616.707 377.761 588.326 385.564 570.25C387.047 566.813 388.653 564 389.131 564C390.661 564 390.049 574.231 387.993 583C386.897 587.675 385.741 592.618 385.423 593.984L384.845 596.467L386.884 593.875C391.047 588.582 409.936 556.887 415.936 545.124L418.071 540.94L413.672 535.22C408.48 528.469 402.868 517.662 400.616 510.078C399.731 507.098 399.153 504.514 399.332 504.335C399.511 504.156 401.758 507.327 404.327 511.381C406.895 515.435 412.008 522.006 415.689 525.982L422.382 533.211L430.218 517.565C434.527 508.959 439.379 498.58 441.001 494.499L443.948 487.079L438.433 481.563C432.185 475.315 427.576 466.482 425.937 457.615C425.346 454.419 425.09 451.577 425.368 451.299C425.646 451.021 427.651 454.327 429.823 458.647C434.345 467.639 441.48 477.523 445.684 480.618C449.078 483.116 457.05 487.284 457.525 486.808C457.707 486.626 457.252 483.558 456.514 479.989C454.026 467.961 453.829 462.711 455.392 450C460.063 411.995 457.379 367.917 449.005 345.12C447.312 340.511 446.188 336.479 446.507 336.159C447.424 335.242 451.625 340.94 454.869 347.5C458.641 355.13 460.607 361.243 462.911 372.508L464.75 381.5L465.125 375.505C465.762 365.326 464.188 343.736 462.041 333.203C459.16 319.066 454.743 306.105 448.904 294.655C446.143 289.24 444.362 285.106 444.947 285.467C446.746 286.579 453.492 297.049 458.365 306.293C460.914 311.129 463 314.598 463 314.002C463 313.406 461.389 305.654 459.419 296.774C455.554 279.345 452.623 272.279 443.891 259.339C438.228 250.946 429.121 240.846 423.6 236.834C421.455 235.275 420.264 234 420.954 234C423.554 234 436.009 241.329 442.478 246.665C446.741 250.181 448.999 251.531 448.647 250.355C448.343 249.335 447.425 245.575 446.607 242C442.452 223.822 436.361 205.765 421.475 167.5C416.451 154.585 408.953 141.317 397.5 125.073L387.5 110.89L377 111.414C371.225 111.703 364.046 112.611 361.047 113.432C358.047 114.254 355.397 114.73 355.157 114.491C354.369 113.702 368.824 107.27 375.361 105.5L381.768 103.766L378.134 97.829L374.5 91.891L369 92.52C365.975 92.865 362.375 93.398 361 93.703C359.042 94.138 358.751 93.99 359.659 93.02C361.267 91.303 373.616 88 378.428 88C383.239 88 382.725 87.398 373.5 82.223C364.863 77.377 354.944 73.386 347.864 71.907C344.914 71.291 342.05 70.328 341.5 69.768C339.951 68.19 354.665 69.585 360.304 71.55C362.947 72.471 365.37 72.963 365.691 72.643C366.011 72.322 360.474 66.268 353.386 59.187C344.606 50.416 337.957 44.751 332.518 41.407C325.091 36.842 324.082 36.501 318.018 36.513C314.433 36.52 309.025 36.871 306 37.292L300.5 38.057L308.334 35.145C312.643 33.543 316.58 31.82 317.084 31.316C317.639 30.761 315.534 29.892 311.75 29.112C308.312 28.404 295.561 24.067 283.413 19.475C257.94 9.846 247.819 7.028 236.692 6.467C232.314 6.247 228.538 5.871 228.299 5.633C227.215 4.548 236.043 2.721 241.952 2.807C247.428 2.887 248.173 2.709 246.5 1.718C244.486 0.526004 222.877 -0.279997 218 0.655003ZM331 309.44C331 309.682 323.911 314.143 315.246 319.352C306.581 324.562 295.893 331.627 291.496 335.052C279.545 344.361 272.2 348.886 266.223 350.624C263.269 351.482 260.615 351.948 260.325 351.658C260.035 351.368 262.656 349.692 266.149 347.932C272.919 344.523 283.524 337.33 283.464 336.188C283.408 335.103 302.961 321.076 308.5 318.227C313.4 315.707 328.77 309.245 330.25 309.082C330.663 309.037 331 309.198 331 309.44ZM339.594 309.848C339.306 310.314 334.892 313.323 329.785 316.535C324.678 319.746 314.511 326.388 307.191 331.294C299.87 336.2 293.663 339.997 293.397 339.73C291.705 338.038 318.395 319.186 331.447 312.855C340.001 308.706 340.388 308.563 339.594 309.848ZM353.315 317.986C359.568 320.941 368.608 327.878 366.309 327.958C365.654 327.981 364.836 327.544 364.491 326.986C363.503 325.386 355.979 321.823 350.5 320.359C339.237 317.351 333.837 318.892 317.25 329.852C312.163 333.213 308 335.586 308 335.125C308 334.044 322.099 323.625 330.144 318.76C338.284 313.838 344.123 313.643 353.315 317.986ZM239.727 334.75C234.959 343.9 234.61 349.489 238.489 354.575C241.55 358.588 240.016 359.2 236.475 355.378C232.158 350.72 231.98 341.837 236.099 336.601C237.927 334.278 240.715 332.855 239.727 334.75ZM368.441 347.25C366.124 354.761 356.243 370.56 351.362 374.56C346.522 378.526 346.089 379.576 348.923 380.476C352.08 381.478 356.933 387.127 357.575 390.547C358.381 394.847 355.184 400.948 349.185 406.555L344.5 410.934L349.344 415.592C354.766 420.806 362.224 430.568 365.126 436.25C367.362 440.628 366.099 441.222 362.998 437.25C359.691 433.016 347.742 422.776 343.01 420.122L338.771 417.743L344.891 425.032C348.257 429.042 350.785 432.548 350.509 432.824C350.233 433.1 347.348 431.262 344.098 428.738C332.856 420.008 333.72 420.043 322.365 427.845C316.939 431.573 310.339 435.89 307.698 437.437L302.896 440.251L299.198 437.284C282.684 424.036 263.613 411.053 262.42 412.247C262.166 412.5 264.413 417.632 267.414 423.65C280.728 450.357 277.832 457.613 246.305 476.549C240.449 480.066 233.711 483.744 231.333 484.722C228.954 485.7 227.008 486.725 227.009 487C227.009 487.275 232.295 489.166 238.755 491.203C246.273 493.573 251.719 495.929 253.886 497.748L257.272 500.59L250.705 507.255C247.093 510.921 240.394 516.663 235.819 520.017C227.658 525.999 215.427 532.761 214.481 531.814C214.217 531.551 217.99 528.575 222.865 525.202C227.74 521.83 233.928 517.035 236.615 514.549L241.5 510.027L233 513.931C207.405 525.686 190.927 526.72 180.76 517.209C179.254 515.799 177.787 514.88 177.5 515.166C175.896 516.771 172.875 535.193 173.207 541.348L173.576 548.195L171.675 545.848C170.145 543.959 169.872 542.424 170.28 538L170.787 532.5L168.92 536.5C167.893 538.7 167.034 541.625 167.011 543C166.944 547.008 165.903 547.661 158.5 548.335C148.328 549.262 141.195 551.378 128.77 557.151C115.85 563.155 110.394 564.198 107.666 561.183C106.66 560.072 105.267 557.231 104.569 554.87L103.302 550.577L101.197 556.204C100.039 559.299 98.787 564.232 98.415 567.165C97.359 575.495 96.721 575.908 93.082 570.619C89.397 565.264 87.506 561.025 85.534 553.706L84.132 548.5L84.066 553.091C84.03 555.616 84.67 559.891 85.489 562.591C87.235 568.347 87.33 569.322 86.065 568.54C84.373 567.495 81.004 557.022 79.436 547.941C76.718 532.186 80.018 513.936 91.451 481.5C102.099 451.292 112.627 434.004 128.447 420.748C136.788 413.759 148.907 407.476 155.901 406.514C158.706 406.128 160.999 405.517 160.998 405.156C160.996 404.795 158.071 402.714 154.498 400.532C150.924 398.349 148 396.253 148 395.874C148 394.143 158.691 398.856 162.631 402.324C166.673 405.883 166.944 405.984 166.038 403.601C165.497 402.177 164.269 399.815 163.31 398.351C161.917 396.225 161.861 395.786 163.033 396.172C163.84 396.438 165.468 398.371 166.65 400.468L168.8 404.28L169.923 398.872C171.302 392.227 174.355 387.055 179.126 383.283C183.075 380.16 190.724 376.391 191.512 377.179C191.782 377.449 191.358 379.882 190.57 382.585C189.204 387.268 189.216 387.384 190.818 385.054C194.977 379.007 195.898 378.88 193.027 384.75C191.347 388.188 190.114 391 190.288 391C190.463 391 194.123 386.725 198.422 381.5C202.721 376.275 206.614 372 207.072 372C208.227 372 209.971 378.677 210.076 383.5L210.162 387.5L211.536 384.5C212.292 382.85 212.93 379.137 212.955 376.25C213.005 370.365 213.74 369.934 218.634 372.919C222.72 375.41 225.951 379.74 230.794 389.215C234.537 396.539 236 397.856 236 393.901C236 391.462 241.214 387.977 245.74 387.39L249.5 386.903L245.167 389.264L240.833 391.626L249.749 391.563C258.405 391.502 258.827 391.608 264.244 395.201C269.154 398.459 277.984 407.646 283.288 415.015C284.272 416.382 283.448 414.273 281.457 410.33C279.465 406.386 275.286 400.315 272.168 396.838C267.828 391.999 267.203 390.955 269.5 392.388C273.731 395.026 277.527 398.71 280.63 403.187C282.097 405.304 283.493 406.84 283.732 406.601C284.305 406.028 277.684 395.636 273.314 390.25C268.789 384.672 270.817 384.814 276.897 390.5C280.913 394.257 282.351 394.996 285.604 394.978C290.992 394.948 305.134 391.7 313.315 388.612C334.795 380.507 359.286 362.2 365.015 349.967C367.362 344.957 369.727 343.081 368.441 347.25ZM312 348.06C312 349.874 302.038 359.754 298.531 361.418C293.254 363.922 292.006 363.164 297.066 360.528C299.577 359.219 302.277 357.357 303.066 356.388C303.929 355.328 302.919 355.694 300.527 357.307C296.231 360.205 287.232 363.566 286.29 362.623C285.971 362.304 286.787 361.581 288.105 361.017C290.352 360.054 290.314 360.019 287.5 360.453C285.85 360.708 281.462 361.212 277.75 361.574C271.434 362.191 271 362.104 271 360.22C271 359.113 272.593 356.809 274.539 355.099C277.825 352.214 278.457 352.036 283.363 352.613C288.968 353.272 294.53 351.387 295.658 348.448C296.338 346.677 312 346.305 312 348.06ZM116.308 351.927C117.649 352.437 119.018 353.935 119.349 355.256C120.261 358.886 124.101 360.233 129.459 358.8C132.936 357.87 134.464 357.89 136.675 358.898C139.426 360.151 139.442 360.206 137.49 361.722C135.647 363.155 135.64 363.22 137.391 362.612C138.995 362.054 139.09 362.186 138.019 363.477C136.318 365.527 137.305 365.395 142.148 362.924C148.221 359.826 146.513 362.806 139.945 366.768C131.15 372.074 121.465 373.66 117.441 370.453C115.617 368.999 115.711 368.943 119 369.525L122.5 370.144L118.252 367.968C115.915 366.772 112.878 364.455 111.502 362.82C108.935 359.77 108.138 357.35 110.1 358.562C110.859 359.031 110.842 358.573 110.045 357.085C109.411 355.899 107.538 354.658 105.883 354.327C102.763 353.703 103.036 352.546 106.5 351.713C109.954 350.882 113.779 350.966 116.308 351.927ZM332.161 359.336C329.82 361.721 324.117 365.861 319.487 368.537C314.857 371.212 311.264 373.597 311.502 373.835C311.741 374.074 316.077 371.96 321.138 369.138C326.199 366.316 330.53 364.197 330.763 364.43C331.429 365.096 323.054 370.907 317 373.979C309.336 377.869 298.655 381.004 293.145 380.981C287.761 380.958 276.954 378.296 281 377.989C282.927 377.843 282.587 377.585 279.517 376.867C273.579 375.477 272.501 373.772 278 374.465C281.049 374.85 281.855 374.746 280.5 374.143C278.985 373.469 280.198 373.084 285.5 372.554C303.169 370.787 313.708 367.49 327 359.57C331.125 357.112 334.931 355.078 335.458 355.05C335.985 355.023 334.501 356.951 332.161 359.336ZM173 365.481C173 365.745 170.863 367.12 168.25 368.537C163.667 371.022 163.741 371.139 168.875 369.53C172.236 368.477 170.764 370.441 167.034 371.986C165.379 372.671 164.279 373.643 164.59 374.145C165.498 375.614 151.026 381.763 143.631 383.051C135.917 384.394 118.54 383.94 116.954 382.354C116.215 381.615 118.83 381.428 125.7 381.73C131.09 381.966 137.3 381.713 139.5 381.168C142.688 380.377 141.723 380.29 134.75 380.736C128.508 381.135 126 380.966 126 380.148C126 379.429 127.977 379 131.29 379C138.3 379 147.297 376.58 153.699 372.971C162.375 368.081 173 363.957 173 365.481ZM130.813 366.683C131.534 366.972 132.397 366.936 132.729 366.604C133.061 366.272 132.471 366.036 131.417 366.079C130.252 366.127 130.015 366.364 130.813 366.683ZM201.208 392.402C199.957 394.227 197.373 396.561 195.467 397.588C191.454 399.749 191.188 401.488 194.02 407.04C195.132 409.218 195.66 411 195.195 411C193.852 411 190.401 406.838 188.327 402.718L186.424 398.936L184.114 402.06C182.844 403.778 180.178 405.863 178.191 406.694L174.578 408.203L177.907 409.603C186.334 413.146 196.862 423.669 199.815 431.5C200.437 433.15 201.386 435.707 201.923 437.182C202.83 439.676 203.109 439.785 205.887 438.736C207.531 438.116 208.669 437.274 208.417 436.866C208.164 436.457 208.755 435.659 209.729 435.092C211.403 434.118 211.404 434.059 209.75 434.03C207.042 433.983 207.54 428.463 210.879 421.5C214 414.993 218.86 409.741 223.315 408.061C227.834 406.358 239.196 406.805 246.118 408.96C249.581 410.037 252.545 410.789 252.704 410.629C253.22 410.113 243.626 406.094 239.25 404.993C233.418 403.525 233.915 402.646 240.25 403.225L245.5 403.704L242.14 402.304C237.027 400.174 227.152 399.601 222.5 401.164C219.269 402.249 217.451 403.988 213.041 410.212C210.039 414.449 207.425 417.758 207.233 417.566C206.49 416.824 210.122 409.644 214.128 403.932C218.764 397.325 218.852 397.728 211.866 393.586L209.231 392.024L207.949 396.762L206.667 401.5L205.93 396.147C204.967 389.15 203.975 388.363 201.208 392.402ZM137.346 427.75C126.411 440.347 121.101 449.581 116.617 463.802C114.096 471.797 113.19 478.584 114.75 477.781C122.43 473.827 130.231 471.947 131.362 473.776C131.707 474.334 130.542 475.061 128.741 475.412C126.959 475.759 124.375 476.95 123 478.059L120.5 480.075L125.5 479.287C128.25 478.854 140.625 478.574 153 478.664C170.046 478.789 174.894 478.563 173 477.733C150.878 468.04 137.894 459.932 134.55 453.722C131.503 448.064 134.074 438.835 142.483 425.25C146.395 418.929 143.985 420.102 137.346 427.75ZM152.669 424.045C149.521 426.522 147.922 431.727 148.936 436.201C149.829 440.146 152.94 446.394 153.655 445.679C153.934 445.4 153.647 444.209 153.018 443.033C152.388 441.857 152.056 440.131 152.279 439.198C152.584 437.924 152.982 438.222 153.873 440.394C156.255 446.199 161.594 451.393 172.671 458.676C183.629 465.882 187.828 469.871 189.887 475.03C190.722 477.12 190.876 477.193 190.893 475.5C190.91 473.703 189.763 470.049 187.465 464.586C186.866 463.162 186.986 462.874 187.934 463.459C190.035 464.758 192.955 472.232 192.978 476.372C192.996 479.571 193.243 480.043 194.395 479.087C195.163 478.45 196.065 476.467 196.4 474.68C197.08 471.057 199.575 467 201.124 467C201.714 467 201.842 467.936 201.43 469.25C201.043 470.488 200.514 472.175 200.256 473C199.998 473.825 200.711 473.066 201.84 471.314C205.861 465.074 210.485 464.739 211.586 470.608C212.478 475.361 213.592 475.638 216.746 471.89C218.245 470.109 223.107 466.305 227.551 463.439C235.383 458.386 243.148 450.858 245.28 446.25C245.853 445.012 246.688 444 247.136 444C248.056 444 247.051 446.936 243.981 453.216C242.249 456.76 242.2 457.111 243.699 455.248C244.696 454.009 246.599 450.192 247.928 446.764C250.598 439.879 251.953 440.169 249.592 447.12C248.241 451.097 248.247 451.316 249.659 449.5C252.421 445.947 254.236 440.612 254.308 435.831C254.491 423.858 246.632 425.732 229.995 441.627C225.553 445.871 220.393 451.421 218.53 453.959C214.658 459.234 208.05 463 202.666 463C198.725 463 197.633 462.048 187.95 450.167C185.112 446.684 180.024 441.747 176.644 439.197C173.265 436.646 167.8 431.733 164.499 428.28C161.198 424.826 157.772 422 156.884 422C155.996 422 154.1 422.92 152.669 424.045ZM319.754 487C337.698 520.599 345.627 538.816 347.976 551.838C349.095 558.035 348.681 563.461 347.011 564.493C346.552 564.777 343.597 559.945 340.444 553.755C337.292 547.565 332.7 538.99 330.24 534.7C327.78 530.41 326.021 526.646 326.331 526.336C326.641 526.026 328.606 526.791 330.697 528.036C333.897 529.942 333.331 529.104 327.123 522.749L319.747 515.198L315.9 497.934C312.626 483.243 311.137 477.771 307.206 466C305.724 461.561 309.912 468.569 319.754 487ZM256 546.563C270.305 549.907 292 558.007 292 560.004C292 560.394 287.553 559.464 282.117 557.938C264.212 552.911 253.204 551.722 220.149 551.243C203.456 551.001 190.181 550.429 190.649 549.972C191.915 548.736 206.184 546.065 217 545.04C229.145 543.889 247.649 544.611 256 546.563ZM188 556.622C196.525 557.424 218.35 558.494 236.5 558.999C267.478 559.862 281.244 561.066 283.437 563.104C283.971 563.6 279.454 563.763 272.937 563.484L261.5 562.993L268.283 564.534C272.013 565.381 276.288 566.58 277.783 567.198C280.366 568.266 280.18 568.384 274 569.601C256.128 573.12 232.095 575.43 213 575.465C195.33 575.497 192.796 575.281 186 573.169C181.875 571.887 176.57 569.721 174.212 568.355L169.924 565.871L163.984 567.927C154.273 571.287 132.854 574.496 135.55 572.186C136.072 571.738 141.181 570.349 146.901 569.098C152.622 567.847 158.247 566.401 159.401 565.884C161.275 565.044 161.232 565.002 159 565.491C157.625 565.792 149.75 566.535 141.5 567.143C125.093 568.351 122.538 569.183 110.805 577.138C107.673 579.262 104.829 581 104.487 581C104.144 581 104.806 579.677 105.957 578.06C109.704 572.798 128.551 561.601 140.5 557.538C151.287 553.871 157.474 553.751 188 556.622ZM171.253 582.139C170.471 585.131 163.205 590.78 157.292 592.992C153.289 594.49 149.489 595 142.34 595C134.08 595 132.922 595.2 133.958 596.45C136.952 600.056 143.872 602.2 152.522 602.2C157.185 602.2 161 602.391 161 602.625C161 603.806 154.834 605.12 149.036 605.175C142.361 605.237 136.193 603.39 132.787 600.307C130.305 598.061 130.553 600.048 133.25 604.01C136.137 608.253 139.868 610.993 144.123 611.998C147.206 612.726 147.028 612.804 142.079 612.898C136.92 612.995 136.452 612.786 132.421 608.579C128.51 604.497 128.246 604.371 128.983 606.94C133.137 621.426 143.956 622.078 173.223 609.602C202.973 596.921 204.942 596.969 230.537 611.012C237.816 615.006 240.765 614.654 245.381 609.237C254.217 598.872 259.736 593.786 264.904 591.248C270.169 588.663 271.299 588.5 284 588.5C291.425 588.5 300.2 588.827 303.5 589.227L309.5 589.953L305.684 587.919C300.025 584.902 288.791 582.34 277.5 581.492C266.703 580.681 266.703 579.19 277.5 579.078C292.375 578.925 311.656 583.269 319.81 588.611C323.39 590.957 321.459 591.619 308.906 592.347C303.079 592.685 294.979 593.649 290.906 594.489C282.928 596.134 267.999 600.979 268.001 601.923C268.002 602.24 271.489 603.35 275.751 604.389C287.898 607.35 288.396 608.024 278 607.433C272.775 607.135 267.376 606.655 266.002 606.365C261.173 605.345 264.741 607.012 273.574 609.902L282.5 612.822L267.064 612.911C252.496 612.995 251.494 613.126 249.236 615.25C247.183 617.18 245.751 617.5 239.171 617.5C234.952 617.5 227 616.672 221.5 615.661C208.437 613.258 195.656 614.548 182.625 619.586C177.233 621.67 176.996 620.667 182.171 617.67C187.031 614.856 192.396 613.264 201.388 611.967C207.273 611.119 207.193 611.102 199.249 611.512C188.97 612.042 180.154 615.331 170.645 622.183C166.874 624.9 163.568 626.902 163.298 626.632C163.028 626.361 164.875 624.073 167.402 621.545C171.728 617.22 171.807 617.048 168.749 618.616C166.962 619.533 161.382 623.146 156.35 626.646C146.707 633.352 143.236 634.642 137.649 633.594C132.525 632.633 125.495 625.922 123.109 619.715C122.006 616.847 121.081 615.302 121.052 616.282C120.959 619.449 124.879 629.699 128.451 635.628C130.364 638.805 131.76 641.574 131.552 641.782C130.719 642.615 126.201 638.773 123.018 634.524C119.266 629.517 118.015 629.195 120.426 633.857C122.656 638.169 122.387 638.71 119.403 635.924C114.193 631.062 112.489 626.294 112.637 617C112.712 612.325 113.482 606.271 114.35 603.547C115.217 600.822 115.751 598.418 115.537 598.204C114.739 597.405 111.612 604.688 110.472 610C109.371 615.132 109.24 615.309 108.511 612.643C107.417 608.645 109.527 600.138 112.95 594.74C116.19 589.632 122.943 584.589 130.278 581.802C137.135 579.197 138.583 580.137 132.49 583.239C124.158 587.482 121.567 590.287 129.517 586.458C137.532 582.597 147.772 579.718 151.774 580.2C153.963 580.463 153.12 580.996 147.5 582.903C139.831 585.505 132.613 588.937 129.5 591.463C128.4 592.355 129.818 591.956 132.651 590.576C139.622 587.18 160.812 580.837 163.96 581.204L166.5 581.5L162.976 585C161.038 586.925 158.563 589.069 157.476 589.764C156.389 590.46 157.075 590.294 159 589.397C163.432 587.332 166.773 584.302 168.696 580.604C170.329 577.464 172.185 578.578 171.253 582.139Z"/>
</svg>
