<svg width="338" height="283" viewBox="0 0 338 283" fill="none" xmlns="http://www.w3.org/2000/svg">
<path fill="#fff" fill-rule="evenodd" clip-rule="evenodd" d="M213.521 0.621991C232.71 3.53699 246.347 7.637 260.521 14.751C288.353 28.72 309.292 49.663 323.276 77.515C341.943 114.694 342.73 157.367 325.425 193.957C302.769 241.858 253.894 276.657 201.579 282.135C195.034 282.82 183.977 283.043 174.077 282.69C145.72 281.679 121.484 275.249 92.5213 261.052C61.7693 245.977 37.8593 227.238 20.2723 204.425C11.9423 193.62 3.24132 175.63 0.951324 164.475C-0.830675 155.797 0.224339 151.811 5.82834 146.051C11.9323 139.778 15.6533 139 39.5703 139H58.0213L58.0254 132.75C58.0344 118.08 63.2723 96.574 70.6173 81.043C84.2623 52.194 107.081 28.883 135.521 14.74C155.298 4.90399 171.354 1.03499 194.521 0.520993C203.321 0.325993 211.871 0.371991 213.521 0.621991ZM262.126 97.751C260.143 99.327 257.509 102.598 256.271 105.02C254.174 109.124 254.022 110.685 254.043 127.962C254.062 143.782 254.334 147.093 255.901 150.541C260.859 161.458 274.16 165.029 283.814 158.035C290.579 153.134 291.477 149.977 291.833 129.838C292.176 110.433 291.458 105.861 287.286 100.903C281.018 93.454 269.368 91.994 262.126 97.751ZM197.108 97.44C189.902 102.434 189.021 105.746 189.021 127.848C189.021 149.371 189.506 151.585 195.345 156.711C198.481 159.464 204.305 161.989 207.521 161.989C210.706 161.989 216.545 159.479 219.599 156.797C225.768 151.381 226.021 150.246 226.021 128.01C226.021 110.27 225.8 107.486 224.127 104.21C223.086 102.17 221.385 99.732 220.348 98.794C214.257 93.287 203.966 92.687 197.108 97.44Z"/>
</svg>
